<svg width="128" height="128" viewBox="0 0 128 128" fill="none" xmlns="http://www.w3.org/2000/svg">
<g clip-path="url(#clip0_4_46)">
<path d="M64 0C28.6538 0 0 28.6538 0 64C0 99.3462 28.6538 128 64 128C99.3462 128 128 99.3462 128 64C128 28.6538 99.3462 0 64 0ZM31.7422 27.039L43.1328 30.6172C44.6407 31.1124 45.6451 32.5127 45.8203 33.9453L46.4609 40.2186L98.039 45.9763C100.254 46.4053 101.81 48.405 101.5 50.4607L98.2969 68.5074C97.8892 70.3951 96.3258 71.6891 94.5859 71.7105H48.7657L47.8672 76.8277H91.3828C93.6582 76.9078 95.3249 78.6405 95.3516 80.6637C95.2572 82.9717 93.3969 84.4825 91.3828 84.5074H43.2578C40.8305 84.3067 39.0485 82.3831 39.4219 80.0308L41.4687 68.7652L38.2656 37.2734L29.4374 34.461C28.4134 34.1197 27.6448 33.4777 27.1328 32.539C26.1641 30.5089 27.0689 28.2612 28.7969 27.289C29.7831 26.7763 30.7463 26.7124 31.7422 27.039ZM49.086 86.7187C52.3997 86.7187 55.086 89.405 55.086 92.7187C55.086 96.0323 52.3997 98.7187 49.086 98.7187C45.7725 98.7187 43.086 96.0323 43.086 92.7187C43.086 89.405 45.7723 86.7187 49.086 86.7187ZM84.3046 86.7187C87.6182 86.7187 90.3046 89.405 90.3046 92.7187C90.3046 96.0323 87.6182 98.7187 84.3046 98.7187C80.991 98.7187 78.3046 96.0323 78.3046 92.7187C78.3046 89.405 80.991 86.7187 84.3046 86.7187Z" fill="#DADADA"/>
</g>
<defs>
<clipPath id="clip0_4_46">
<rect width="128" height="128" fill="white"/>
</clipPath>
</defs>
</svg>
